<?xml version="1.0" encoding="utf-8"?>
<!-- Generator: Adobe Illustrator 24.0.3, SVG Export Plug-In . SVG Version: 6.00 Build 0)  -->
<svg version="1.1" id="Layer_1" xmlns="http://www.w3.org/2000/svg" xmlns:xlink="http://www.w3.org/1999/xlink" x="0px" y="0px"
	 viewBox="0 0 150 150" style="enable-background:new 0 0 150 150;" xml:space="preserve">
<style type="text/css">
	.st0{fill:#F7F7F7;}
	.st1{fill:none;stroke:#F84C5F;stroke-width:3;stroke-linecap:round;stroke-miterlimit:10;}
	.st2{enable-background:new    ;}
	.st3{fill:#15212E;}
</style>
<g>
	<g>
		<path class="st0" d="M75,15c33.1,0,60,26.9,60,60s-26.9,60-60,60s-60-26.9-60-60S41.9,15,75,15 M75,7C37.4,7,7,37.4,7,75
			s30.4,68,68,68s68-30.4,68-68S112.6,7,75,7L75,7z"/>
	</g>
	<path class="st1" d="M74.6,136c-33.7,0-61-27.3-61-61s27.3-61,61-61"/>
</g>
<g class="st2">
	<path class="st3" d="M66.2,65.2h1.2l8.1,17.6h-1.4l-2.2-4.9H61.6l-2.2,4.9H58L66.2,65.2z M71.4,76.7l-4.6-10.1l-4.6,10.1H71.4z"/>
	<path class="st3" d="M78.5,76.5L78.5,76.5c0-3.7,2.6-6.7,6-6.7c3.6,0,5.8,2.9,5.8,6.7c0,0.2,0,0.3,0,0.5H79.8c0.2,3.2,2.5,5,5,5
		c2,0,3.3-0.9,4.4-2l0.8,0.8c-1.3,1.4-2.8,2.4-5.3,2.4C81.4,83.1,78.5,80.4,78.5,76.5z M89.1,75.8c-0.2-2.6-1.6-4.9-4.6-4.9
		c-2.5,0-4.5,2.1-4.7,4.9H89.1z"/>
</g>
</svg>
