<?xml version="1.0" encoding="utf-8"?>
<!-- Generator: Adobe Illustrator 24.0.3, SVG Export Plug-In . SVG Version: 6.00 Build 0)  -->
<svg version="1.1" id="Layer_1" xmlns="http://www.w3.org/2000/svg" xmlns:xlink="http://www.w3.org/1999/xlink" x="0px" y="0px"
	 viewBox="0 0 150 150" style="enable-background:new 0 0 150 150;" xml:space="preserve">
<style type="text/css">
	.st0{fill:#F7F7F7;}
	.st1{fill:none;stroke:#F84C5F;stroke-width:3;stroke-linecap:round;stroke-miterlimit:10;}
	.st2{enable-background:new    ;}
	.st3{fill:#15212E;}
</style>
<g>
	<g>
		<path class="st0" d="M75,17c32,0,58,26,58,58s-26,58-58,58s-58-26-58-58S43,17,75,17 M75,9C38.5,9,9,38.5,9,75s29.5,66,66,66
			s66-29.6,66-66S111.4,9,75,9L75,9z"/>
	</g>
	<path class="st1" d="M103,21c19.2,10.2,32.4,30.4,32.4,53.7c0,33.5-27.2,60.7-60.7,60.7s-60.7-27.2-60.7-60.7s27.2-60.7,60.7-60.7"
		/>
</g>
<g class="st2">
	<path class="st3" d="M70,65.2h1.2l8.1,17.6H78l-2.2-4.9H65.5l-2.2,4.9h-1.3L70,65.2z M75.2,76.7l-4.6-10.1L66,76.7H75.2z"/>
	<path class="st3" d="M83.9,65.1h1.5v1.7h-1.5V65.1z M84,70.1h1.2v12.7H84V70.1z"/>
</g>
</svg>
