<?xml version="1.0" encoding="utf-8"?>
<!-- Generator: Adobe Illustrator 24.0.3, SVG Export Plug-In . SVG Version: 6.00 Build 0)  -->
<svg version="1.1" id="Capa_1" xmlns="http://www.w3.org/2000/svg" xmlns:xlink="http://www.w3.org/1999/xlink" x="0px" y="0px"
	 viewBox="0 0 512 512" style="enable-background:new 0 0 512 512;" xml:space="preserve">
<style type="text/css">
	.st0{fill:#F84C5F;stroke:#F84C5F;stroke-width:6;stroke-miterlimit:10;}
</style>
<g>
	<g>
		<path class="st0" d="M289.8,243.4L78.9,33.1c-6.9-6.9-18.1-6.9-25,0c-6.9,6.9-6.9,18.1,0,25L252.3,256L54,453.8
			c-6.9,6.9-6.9,18.1,0,25c3.5,3.5,8,5.2,12.6,5.2s9-1.7,12.5-5.2l210.9-210.4c3.3-3.3,5.2-7.8,5.2-12.5S293.2,246.8,289.8,243.4z"
			/>
	</g>
</g>
<g>
	<g>
		<path class="st0" d="M462.3,243.4L251.4,33.1c-6.9-6.9-18.1-6.9-25,0c-6.9,6.9-6.9,18.1,0,25L424.8,256L226.5,453.8
			c-6.9,6.9-6.9,18.1,0,25c3.5,3.5,8,5.2,12.6,5.2s9-1.7,12.5-5.2l210.9-210.4c3.3-3.3,5.2-7.8,5.2-12.5S465.7,246.8,462.3,243.4z"
			/>
	</g>
</g>
</svg>
