<?xml version="1.0" encoding="utf-8"?>
<!-- Generator: Adobe Illustrator 24.0.3, SVG Export Plug-In . SVG Version: 6.00 Build 0)  -->
<svg version="1.1" id="Capa_1" xmlns="http://www.w3.org/2000/svg" xmlns:xlink="http://www.w3.org/1999/xlink" x="0px" y="0px"
	 viewBox="0 0 512 512" style="enable-background:new 0 0 512 512;" xml:space="preserve">
<style type="text/css">
	.st0{fill:#013AD6;}
</style>
<g>
	<g>
		<g>
			<path class="st0" d="M211.2,240.8c10.5-5.3,18.4-11.2,23.9-17.5c9.7-11.4,14.4-26.6,14.4-45.4c0-18.3-4.8-33.9-14.3-47
				c-15.9-21.4-42.9-32.3-81-32.9H3.3v308.2H144c15.9,0,30.6-1.4,44.1-4.1c13.6-2.8,25.3-8,35.3-15.5c8.8-6.5,16.2-14.7,22.1-24.2
				c9.3-14.5,13.9-30.9,13.9-49.1c0-17.7-4.1-32.8-12.2-45.2C239.1,255.7,227.1,246.6,211.2,240.8z M65.5,151.5h68
				c14.9,0,27.3,1.6,36.9,4.8c11.2,4.6,16.8,14.1,16.8,28.5c0,12.9-4.3,22-12.7,27c-8.5,5.1-19.5,7.6-33,7.6h-76V151.5z M173,347.3
				c-7.5,3.6-18.1,5.4-31.7,5.4H65.5v-82.2h76.9c13.4,0.1,23.8,1.9,31.3,5.2c13.3,6,19.9,17,19.9,33.1
				C193.6,327.8,186.8,340.5,173,347.3z"/>
			<rect x="326.3" y="112.4" class="st0" width="133.9" height="38.4"/>
			<path class="st0" d="M506.7,263.8c-2.8-17.9-8.9-33.6-18.5-47.1c-10.5-15.4-23.7-26.6-39.9-33.7c-16.1-7.1-34.2-10.7-54.3-10.7
				c-33.8,0-61.3,10.6-82.6,31.6c-21.2,21.1-31.8,51.4-31.8,90.9c0,42.1,11.7,72.5,35.3,91.2c23.5,18.7,50.6,28,81.4,28
				c37.3,0,66.2-11.1,86.9-33.2c13.2-14,20.7-27.7,22.4-41.2h-61.7c-3.6,6.7-7.7,11.9-12.4,15.7c-8.6,7-19.8,10.4-33.5,10.4
				c-13,0-24.1-2.9-33.3-8.6c-15.2-9.2-23.2-25.2-24.2-48.1h168.3C508.9,289.3,508.3,274.2,506.7,263.8z M341.9,269.7
				c2.2-14.8,7.6-26.6,16.1-35.3s20.6-13,36.1-13c14.2,0,26.2,4.1,35.9,12.3c9.6,8.2,15,20.2,16.1,36.1H341.9V269.7z"/>
		</g>
	</g>
</g>
</svg>
