<?xml version="1.0" encoding="utf-8"?>
<!-- Generator: Adobe Illustrator 24.0.3, SVG Export Plug-In . SVG Version: 6.00 Build 0)  -->
<svg version="1.1" id="Layer_1" xmlns="http://www.w3.org/2000/svg" xmlns:xlink="http://www.w3.org/1999/xlink" x="0px" y="0px"
	 viewBox="0 0 150 18" style="enable-background:new 0 0 150 18;" xml:space="preserve">
<style type="text/css">
	.st0{fill:#E3E3E3;}
	.st1{fill:#F84C5F;}
	.st2{enable-background:new    ;}
</style>
<g>
	<g id="Group_249_2_" transform="translate(-915 -2423)">
		<path id="Rectangle_106_2_" class="st0" d="M917.9,2436.6h144.2c0.9,0,1.7,0.7,1.7,1.7l0,0c0,0.9-0.7,1.7-1.7,1.7H917.9
			c-0.9,0-1.7-0.7-1.7-1.7l0,0C916.2,2437.2,917,2436.6,917.9,2436.6z"/>
		<path id="Rectangle_105_2_" class="st1" d="M917.6,2436.6h108c0.8,0,1.4,0.7,1.4,1.7l0,0c0,0.9-0.6,1.7-1.4,1.7h-108
			c-0.8,0-1.4-0.7-1.4-1.7l0,0C916.2,2437.2,916.8,2436.6,917.6,2436.6z"/>
	</g>
	<g class="st2">
		<path d="M2.1,1.2h2.5c0.7,0,1.2,0.2,1.6,0.5c0.3,0.3,0.4,0.6,0.4,1l0,0c0,0.8-0.5,1.2-1,1.4C6.3,4.3,7,4.8,7,5.5l0,0
			c0,1-0.9,1.7-2.2,1.7H2.1V1.2z M6.1,2.8c0-0.7-0.5-1.1-1.5-1.1h-2V4h2C5.5,4.1,6.1,3.5,6.1,2.8L6.1,2.8z M4.6,4.5h-2v2.4h2.2
			c1,0,1.7-0.5,1.7-1.2l0,0C6.5,4.8,5.8,4.5,4.6,4.5z"/>
		<path d="M8.3,2.9h0.4v1.3c0.3-0.8,1.1-1.4,2-1.3v0.5l0,0c-1,0-1.9,0.8-1.9,2.2v1.8H8.3V2.9z"/>
		<path d="M11.2,6L11.2,6c0-0.9,0.8-1.5,1.9-1.5c0.6,0,1,0.1,1.5,0.2V4.5c0-0.9-0.5-1.4-1.5-1.4c-0.5,0-1,0.1-1.4,0.4l-0.2-0.4
			c0.5-0.2,1-0.4,1.6-0.4s1.1,0.2,1.4,0.5C14.8,3.5,15,4,15,4.4v2.8h-0.4V6.5c-0.3,0.4-0.8,0.8-1.7,0.8C12.1,7.3,11.2,7,11.2,6z
			 M14.6,5.6V5.1c-0.4-0.1-0.9-0.2-1.5-0.2c-0.9,0-1.5,0.4-1.5,1l0,0c0,0.6,0.6,1,1.3,1C13.8,7,14.6,6.5,14.6,5.6z"/>
		<path d="M16.5,2.9h0.4v0.8c0.3-0.5,0.8-0.9,1.6-0.9c1.1,0,1.8,0.8,1.8,1.8v2.7h-0.4V4.8c0-0.9-0.5-1.5-1.4-1.5S17,4,17,4.8v2.6
			h-0.4V2.9H16.5z"/>
		<path d="M21.5,5.1L21.5,5.1c0-1.5,1.1-2.3,2.1-2.3c0.9,0,1.5,0.5,1.8,1.1V1h0.4v6.3h-0.4v-1c-0.4,0.6-0.9,1.1-1.8,1.1
			C22.6,7.3,21.5,6.6,21.5,5.1z M25.5,5.1L25.5,5.1c0-1.2-0.9-1.9-1.8-1.9c-1,0-1.7,0.7-1.7,1.9l0,0C22,6.3,22.8,7,23.7,7
			C24.7,7,25.5,6.2,25.5,5.1z"/>
		<path d="M27.6,1.2h0.5v0.6h-0.5V1.2z M27.6,2.9H28v4.4h-0.4V2.9z"/>
		<path d="M29.7,2.9h0.4v0.8c0.3-0.5,0.8-0.9,1.6-0.9c1.1,0,1.8,0.8,1.8,1.8v2.7h-0.4V4.8c0-0.9-0.5-1.5-1.4-1.5S30.2,4,30.2,4.8
			v2.6h-0.4L29.7,2.9L29.7,2.9z"/>
		<path d="M34.9,8.1l0.3-0.3c0.5,0.4,1.1,0.6,1.8,0.6c1,0,1.7-0.6,1.7-1.7V6.1c-0.4,0.5-1,1-1.8,1c-1.1,0-2.1-0.8-2.1-2.1l0,0
			c0-1.3,1.1-2.1,2.1-2.1c0.9,0,1.5,0.5,1.8,1V3h0.4v3.7c0,0.6-0.2,1.1-0.6,1.5c-0.4,0.4-1,0.6-1.6,0.6C36.2,8.6,35.5,8.6,34.9,8.1z
			 M38.7,4.8L38.7,4.8c0-1-0.9-1.7-1.8-1.7c-0.9,0-1.7,0.6-1.7,1.7l0,0c0,1,0.8,1.7,1.7,1.7C37.8,6.6,38.7,5.8,38.7,4.8z"/>
	</g>
</g>
</svg>
