<?xml version="1.0" encoding="utf-8"?>
<!-- Generator: Adobe Illustrator 24.0.3, SVG Export Plug-In . SVG Version: 6.00 Build 0)  -->
<svg version="1.1" id="Layer_1" xmlns="http://www.w3.org/2000/svg" xmlns:xlink="http://www.w3.org/1999/xlink" x="0px" y="0px"
	 viewBox="0 0 427.9 170.9" style="enable-background:new 0 0 427.9 170.9;" xml:space="preserve">
<style type="text/css">
	.st0{display:none;}
	.st1{display:inline;fill:none;stroke:#DA1C5C;stroke-miterlimit:10;}
	.st2{fill:none;stroke:#001ECE;stroke-width:19;stroke-linecap:round;}
</style>
<g id="AhwDDo.tif" class="st0">
</g>
<g class="st0">
	<path class="st1" d="M-2802.3,69.8c-0.6,0-1.3,0-1.9,0c-1.9,0-3.8-0.1-5.6-0.2c0,0.1,0.1,0.2,0.1,0.3c1.8-0.1,3.7-0.1,5.5-0.1"/>
	<path class="st1" d="M-2764.4,60.3c-11.4,5.8-24.3,9.3-37.9,9.6c0,0,0,0,0,0.1"/>
	<path class="st1" d="M-2716.6-17.8c0,2.5-0.1,5-0.3,7.5c11.4-5.8,24.3-9.3,37.9-9.6c-0.2-13-2.4-25.6-6.3-37.4
		c-13,0.8-25.4,3.7-37,8.2C-2718.7-39.3-2716.6-28.8-2716.6-17.8z"/>
	<path class="st1" d="M-2738.2,88.7c35.6-22.1,59.2-61.5,59.2-106.5c0-0.7,0-1.4,0-2c-13.6,0.3-26.5,3.7-37.9,9.6
		c-2.6,30.8-21.2,57.1-47.4,70.5"/>
	<path class="st1" d="M-2802.3,67.8c0,0.7,0,1.4,0,2c13.6-0.3,26.5-3.7,37.9-9.6c2.6-30.8,21.2-57.1,47.4-70.5
		c0.2-2.5,0.3-5,0.3-7.5c0-11-2-21.5-5.7-31.2C-2769.2-30.8-2802.3,14.6-2802.3,67.8z"/>
	<path class="st1" d="M-2764.4,60.3c26.2-13.4,44.8-39.7,47.4-70.5C-2743.2,3.2-2761.8,29.5-2764.4,60.3z"/>
	<path class="st1" d="M-2796,107.2c-2.5,0.2-5.1,0.3-7.7,0.3l0,0"/>
	<path class="st1" d="M-2717,186.6c12,4,24.7,6.3,38,6.5c-0.2-13.3-2.5-26.1-6.5-38c-33.7-3.2-61.8-25.5-73.4-56
		c-11.6,4.5-24.1,7.3-37,8.2c0.1,0.2,0.1,0.5,0.2,0.7"/>
	<path class="st1" d="M-2759,99.1c7.3-2.8,14.2-6.3,20.7-10.4"/>
	<path class="st1" d="M-2795.8,107.9c12.5,37,41.7,66.2,78.7,78.6"/>
	<path class="st1" d="M-2891.6-10.9c-11.8-3.7-24.3-5.7-37.3-5.7c-0.2,0-0.4,0-0.6,0c0.1,13.2,2.3,25.9,6.2,37.8
		c34.9,2.2,64.3,24.9,76.2,56.1c11.7-4.3,24.2-6.8,37.3-7.4"/>
	<path class="st1" d="M-2809.9,69.7c-12.6-38.3-43.1-68.5-81.7-80.6"/>
	<path class="st1" d="M-2841.6,115.9c11.3-5.3,24-8.3,37.3-8.3c0.2,0,0.4,0,0.6,0l0,0"/>
	<path class="st1" d="M-2891.9,195.2c0-2.4,0.1-4.8,0.3-7.1c-11.3,5.3-24,8.3-37.3,8.3c-0.2,0-0.4,0-0.6,0
		c0.1,13.1,2.3,25.7,6.1,37.5c13.1-0.6,25.6-3.1,37.3-7.4C-2889.8,216.7-2891.9,206.2-2891.9,195.2z"/>
	<path class="st1" d="M-2809.8,70"/>
	<path class="st1" d="M-2841.6,115.9c-2.6,32-22.3,59.1-50,72.2c-0.2,2.4-0.3,4.7-0.3,7.1c0,11,2,21.6,5.8,31.3
		c48.1-17.5,82.4-63.6,82.4-117.7c0-0.4,0-0.8,0-1.2c-0.2,0-0.4,0-0.6,0"/>
	<path class="st1" d="M-2870.3,88.7c-35.6,22.1-59.2,61.5-59.2,106.5c0,0.4,0,0.8,0,1.2c0.2,0,0.4,0,0.6,0c13.4,0,26-3,37.3-8.3
		c2.6-32,22.3-59.1,50-72.2"/>
	<path class="st1" d="M-2847.1,77.4c-8.2,3-15.9,6.8-23.2,11.3"/>
	<path class="st1" d="M-2841.6,115.9c-27.7,13.1-47.4,40.2-50,72.2C-2863.9,175-2844.2,147.8-2841.6,115.9z"/>
</g>
<g id="hamburger_menu" transform="translate(-1778 -28.5)">
	<line id="Line_1" class="st2" x1="2031.9" y1="153.4" x2="1810.5" y2="153.4"/>
	<line id="Line_3" class="st2" x1="2172.5" y1="153.4" x2="2176" y2="153.4"/>
</g>
<g id="hamburger_menu-2" transform="translate(1806.5 56.5) rotate(180)">
	<line id="Line_1-2" class="st2" x1="1682.2" y1="-68.4" x2="1548.6" y2="-68.4"/>
	<line id="Line_2" class="st2" x1="1618.9" y1="16" x2="1408.1" y2="16"/>
	<line id="Line_3-2" class="st2" x1="1773.5" y1="16" x2="1777.1" y2="16"/>
</g>
</svg>
