<?xml version="1.0" encoding="utf-8"?>
<!-- Generator: Adobe Illustrator 24.0.3, SVG Export Plug-In . SVG Version: 6.00 Build 0)  -->
<svg version="1.1" id="Layer_1" xmlns="http://www.w3.org/2000/svg" xmlns:xlink="http://www.w3.org/1999/xlink" x="0px" y="0px"
	 viewBox="0 0 496 496" style="enable-background:new 0 0 496 496;" xml:space="preserve">
<style type="text/css">
	.st0{fill:#FFFFFF;}
</style>
<g>
	<g>
		<path class="st0" d="M259.8,3C121.7,3,52,98.9,52,178.8c0,48.4,18.9,91.5,59.5,107.5c1.7,0.7,3.4,1,5,1c4.5,0,8.2-2.8,9.6-8.1
			c1.4-4.9,4.5-17.4,6-22.6c1.9-7.1,1.2-9.5-4.2-15.6c-11.7-13.4-19.2-30.7-19.2-55.2c0-71.2,55.1-134.8,143.2-134.8
			c78.1,0,121,46.2,121,107.8c0,81.1-37.1,149.6-92.2,149.6c-30.5,0-53.2-24.4-45.9-54.2c8.7-35.7,25.7-74.1,25.7-99.8
			c0-23.1-12.8-42.2-39.2-42.2c-31.1,0-56.1,31.1-56.1,72.8c0,26.5,9.3,44.5,9.3,44.5S142.6,360.1,137,383
			c-11.1,45.5-1.7,101.3-0.9,106.9c0.3,2,2,3.1,3.7,3.1c1.2,0,2.4-0.5,3.2-1.5c2.9-3.6,39.9-47.9,52.5-92.1
			c3.6-12.5,20.5-77.3,20.5-77.3c10.1,18.6,39.6,35,71.1,35c93.5,0,156.9-82.4,156.9-192.8C444,80.8,370.9,3,259.8,3z"/>
	</g>
</g>
</svg>
