<?xml version="1.0" encoding="utf-8"?>
<!-- Generator: Adobe Illustrator 24.0.3, SVG Export Plug-In . SVG Version: 6.00 Build 0)  -->
<svg version="1.1" id="Layer_1" xmlns="http://www.w3.org/2000/svg" xmlns:xlink="http://www.w3.org/1999/xlink" x="0px" y="0px"
	 viewBox="0 0 150 150" style="enable-background:new 0 0 150 150;" xml:space="preserve">
<style type="text/css">
	.st0{fill:#F7F7F7;}
	.st1{fill:none;stroke:#F84C5F;stroke-width:3;stroke-linecap:round;stroke-miterlimit:10;}
	.st2{enable-background:new    ;}
	.st3{fill:#15212E;}
</style>
<g>
	<g>
		<path class="st0" d="M75,17c32,0,58,26,58,58s-26,58-58,58s-58-26-58-58S43,17,75,17 M75,9C38.5,9,9,38.5,9,75s29.5,66,66,66
			s66-29.6,66-66S111.4,9,75,9L75,9z"/>
	</g>
	<path class="st1" d="M103,21c19.2,10.2,32.4,30.4,32.4,53.7c0,33.5-27.2,60.7-60.7,60.7s-60.7-27.2-60.7-60.7s27.2-60.7,60.7-60.7"
		/>
</g>
<g class="st2">
	<path class="st3" d="M61.8,65.3h6.3c3.8,0,6.5,2,6.5,5.3v0.1c0,3.7-3.2,5.6-6.8,5.6h-4.7v6.5h-1.3V65.3z M67.9,75.1
		c3.2,0,5.4-1.7,5.4-4.3v0c0-2.8-2.1-4.2-5.3-4.2h-4.9v8.6H67.9z"/>
	<path class="st3" d="M78.1,81.2l0.7-1c1.4,1.1,2.9,1.7,4.6,1.7c1.7,0,3.1-1,3.1-2.4v0c0-1.5-1.6-2-3.4-2.5
		c-2.1-0.6-4.4-1.2-4.4-3.5v0c0-2,1.7-3.5,4.2-3.5c1.5,0,3.2,0.5,4.5,1.4l-0.7,1c-1.2-0.8-2.6-1.3-3.9-1.3c-1.7,0-2.9,0.9-2.9,2.2
		v0.1c0,1.4,1.7,1.9,3.5,2.5c2,0.6,4.2,1.3,4.2,3.6v0c0,2.3-1.9,3.7-4.4,3.7C81.5,83.1,79.5,82.3,78.1,81.2z"/>
</g>
</svg>
