<?xml version="1.0" encoding="utf-8"?>
<!-- Generator: Adobe Illustrator 24.0.3, SVG Export Plug-In . SVG Version: 6.00 Build 0)  -->
<svg version="1.1" id="Layer_1" xmlns="http://www.w3.org/2000/svg" xmlns:xlink="http://www.w3.org/1999/xlink" x="0px" y="0px"
	 viewBox="0 0 150 150" style="enable-background:new 0 0 150 150;" xml:space="preserve">
<style type="text/css">
	.st0{fill:#F7F7F7;}
	.st1{fill:none;stroke:#F84C5F;stroke-width:3;stroke-linecap:round;stroke-miterlimit:10;}
	.st2{enable-background:new    ;}
	.st3{fill:#15212E;}
</style>
<g>
	<path class="st0" d="M75,15c33.1,0,60,26.9,60,60s-26.9,60-60,60s-60-26.9-60-60S41.9,15,75,15 M75,7C37.4,7,7,37.4,7,75
		s30.4,68,68,68s68-30.4,68-68S112.6,7,75,7L75,7z"/>
</g>
<path class="st1" d="M132.4,51.4c3,7.3,4.6,15.2,4.6,23.6c0,34.2-27.8,62-62,62s-62-27.8-62-62s27.8-62,62-62"/>
<g class="st2">
	<path class="st3" d="M31.2,80.3l0.8-1c1.9,1.8,3.7,2.6,6.3,2.6c2.6,0,4.4-1.5,4.4-3.5v-0.1c0-1.8-1-2.9-4.9-3.7
		c-4.2-0.8-5.9-2.3-5.9-4.9v0c0-2.6,2.4-4.6,5.6-4.6c2.5,0,4.2,0.7,6,2.1l-0.8,1c-1.6-1.4-3.3-2-5.2-2c-2.6,0-4.3,1.5-4.3,3.3v0
		c0,1.8,0.9,3,5.1,3.8c4,0.8,5.7,2.3,5.7,4.8v0.1c0,2.8-2.4,4.8-5.8,4.8C35.4,83.1,33.3,82.1,31.2,80.3z"/>
	<path class="st3" d="M49,64.6h1.2v13.7l7.9-8.2h1.6l-5.6,5.6l5.7,7.1h-1.5l-5-6.2l-3.1,3.1v3.1H49V64.6z"/>
	<path class="st3" d="M62.5,76.5L62.5,76.5c0-3.7,2.6-6.7,6-6.7c3.6,0,5.8,2.9,5.8,6.7c0,0.2,0,0.3,0,0.5H63.8c0.2,3.2,2.5,5,5,5
		c2,0,3.3-0.9,4.4-2l0.8,0.8c-1.3,1.4-2.8,2.4-5.3,2.4C65.4,83.1,62.5,80.4,62.5,76.5z M73.1,75.8c-0.2-2.6-1.6-4.9-4.6-4.9
		c-2.5,0-4.5,2.1-4.7,4.9H73.1z"/>
	<path class="st3" d="M79.7,79.5v-8.3h-1.8v-1.1h1.8V66h1.2v4.1h4.5v1.1h-4.5v8.2c0,1.8,1.1,2.5,2.5,2.5c0.6,0,1.1-0.1,1.9-0.5v1.2
		c-0.6,0.3-1.3,0.4-2.1,0.4C81.3,83,79.7,82,79.7,79.5z"/>
	<path class="st3" d="M88.8,76.5L88.8,76.5c0-3.6,2.8-6.7,6.5-6.7c2.4,0,3.9,1.1,5.1,2.3L99.5,73c-1.1-1.1-2.3-2.1-4.2-2.1
		c-2.9,0-5.1,2.4-5.1,5.5v0.1c0,3.1,2.3,5.5,5.2,5.5c1.8,0,3.2-0.9,4.3-2.1l0.8,0.8c-1.3,1.5-2.8,2.5-5.2,2.5
		C91.6,83.1,88.8,80.1,88.8,76.5z"/>
	<path class="st3" d="M104.9,64.6h1.2v7.9c0.8-1.5,2.3-2.7,4.6-2.7c3.2,0,5.1,2.2,5.1,5.2v7.8h-1.2v-7.6c0-2.6-1.5-4.3-4-4.3
		c-2.5,0-4.4,1.9-4.4,4.5v7.4h-1.2V64.6z"/>
</g>
</svg>
