<?xml version="1.0" encoding="utf-8"?>
<!-- Generator: Adobe Illustrator 24.0.3, SVG Export Plug-In . SVG Version: 6.00 Build 0)  -->
<svg version="1.1" id="Layer_1" xmlns="http://www.w3.org/2000/svg" xmlns:xlink="http://www.w3.org/1999/xlink" x="0px" y="0px"
	 viewBox="0 0 150 20" style="enable-background:new 0 0 150 20;" xml:space="preserve">
<style type="text/css">
	.st0{fill:#E3E3E3;}
	.st1{fill:#F84C5F;}
	.st2{enable-background:new    ;}
</style>
<g>
	<g id="Group_249" transform="translate(-915 -2423)">
		<path id="Rectangle_106" class="st0" d="M917.9,2437.9h144.2c0.9,0,1.7,0.7,1.7,1.7l0,0c0,0.9-0.7,1.7-1.7,1.7H917.9
			c-0.9,0-1.7-0.7-1.7-1.7l0,0C916.2,2438.6,917,2437.9,917.9,2437.9z"/>
		<path id="Rectangle_105" class="st1" d="M917.9,2437.9h131.3c0.9,0,1.7,0.7,1.7,1.7l0,0c0,0.9-0.7,1.7-1.7,1.7H917.9
			c-0.9,0-1.7-0.7-1.7-1.7l0,0C916.2,2438.6,917,2437.9,917.9,2437.9z"/>
	</g>
	<g class="st2">
		<path d="M2,6.1V2.6h0.5v3.5c0,1.4,0.8,2.3,2.1,2.3c1.2,0,2-0.7,2-2.2V2.7H7v3.5c0,1.7-1,2.7-2.5,2.7C3.1,8.8,2,7.9,2,6.1z"/>
		<path d="M8.8,2.6h0.5v6.1H8.8V2.6z"/>
		<path d="M16.7,1.8h0.4l-4.1,8h-0.4L16.7,1.8z"/>
		<path d="M20.5,6.1V2.6H21v3.5c0,1.4,0.8,2.3,2.1,2.3c1.2,0,2-0.7,2-2.2V2.7h0.5v3.5c0,1.7-1,2.7-2.5,2.7
			C21.6,8.8,20.5,7.9,20.5,6.1z"/>
		<path d="M32,2.6l-2.3,3l2.4,3.1h-0.5L29.4,6l-2.1,2.8h-0.5l2.4-3.1l-2.3-3h0.5l2.1,2.7l2.1-2.7C31.6,2.7,32,2.7,32,2.6z"/>
	</g>
</g>
</svg>
