<?xml version="1.0" encoding="utf-8"?>
<!-- Generator: Adobe Illustrator 24.0.3, SVG Export Plug-In . SVG Version: 6.00 Build 0)  -->
<svg version="1.1" id="Layer_1" xmlns="http://www.w3.org/2000/svg" xmlns:xlink="http://www.w3.org/1999/xlink" x="0px" y="0px"
	 viewBox="0 0 150 20" style="enable-background:new 0 0 150 20;" xml:space="preserve">
<style type="text/css">
	.st0{fill:#E3E3E3;}
	.st1{fill:#F84C5F;}
</style>
<g>
	<g id="Group_249_2_" transform="translate(-915 -2423)">
		<path id="Rectangle_106_2_" class="st0" d="M917.9,2425h144.2c0.9,0,1.7,0.7,1.7,1.7l0,0c0,0.9-0.7,1.7-1.7,1.7H917.9
			c-0.9,0-1.7-0.7-1.7-1.7l0,0C916.2,2425.8,917,2425,917.9,2425z"/>
		<path id="Rectangle_105_2_" class="st1" d="M917.9,2425h131.3c0.9,0,1.7,0.7,1.7,1.7l0,0c0,0.9-0.7,1.7-1.7,1.7H917.9
			c-0.9,0-1.7-0.7-1.7-1.7l0,0C916.2,2425.8,917,2425,917.9,2425z"/>
	</g>
</g>
</svg>
