<?xml version="1.0" encoding="utf-8"?>
<!-- Generator: Adobe Illustrator 24.0.3, SVG Export Plug-In . SVG Version: 6.00 Build 0)  -->
<svg version="1.1" id="Layer_1" xmlns="http://www.w3.org/2000/svg" xmlns:xlink="http://www.w3.org/1999/xlink" x="0px" y="0px"
	 viewBox="0 0 150 150" style="enable-background:new 0 0 150 150;" xml:space="preserve">
<style type="text/css">
	.st0{fill:#F7F7F7;}
	.st1{fill:none;stroke:#F84C5F;stroke-width:3;stroke-linecap:round;stroke-miterlimit:10;}
	.st2{enable-background:new    ;}
	.st3{fill:#15212E;}
</style>
<g>
	<path class="st0" d="M75,15c33.1,0,60,26.9,60,60s-26.9,60-60,60s-60-26.9-60-60S41.9,15,75,15 M75,7C37.4,7,7,37.4,7,75
		s30.4,68,68,68s68-30.4,68-68S112.6,7,75,7L75,7z"/>
</g>
<path class="st1" d="M132.4,51.4c3,7.3,4.6,15.2,4.6,23.6c0,34.2-27.8,62-62,62s-62-27.8-62-62s27.8-62,62-62"/>
<g class="st2">
	<path class="st3" d="M73.5,65.3l-6.7,8.6l7,8.9h-1.5L66,74.7l-6.2,8.1h-1.5l6.9-8.9l-6.7-8.6h1.5l6,7.7l5.9-7.7H73.5z"/>
	<path class="st3" d="M76.5,76.5L76.5,76.5c0-4.2,3.1-6.7,6.2-6.7c2.5,0,4.2,1.4,5.2,3v-8.2h1.2v18.2H88V80
		c-1.1,1.7-2.7,3.1-5.2,3.1C79.7,83.1,76.5,80.6,76.5,76.5z M88.1,76.5L88.1,76.5c0-3.3-2.5-5.5-5.2-5.5c-2.8,0-5,2-5,5.4v0.1
		c0,3.3,2.3,5.5,5,5.5C85.5,81.9,88.1,79.7,88.1,76.5z"/>
</g>
</svg>
